<?xml version="1.0" encoding="UTF-8"?>
<svg id="Capa_2" data-name="Capa 2" xmlns="http://www.w3.org/2000/svg" viewBox="0 0 600.3 196.15">
  <defs>
    <style>
      .cls-1 {
        fill: #ddb44b;
      }

      .cls-2 {
        fill: #1d2c50;
      }

      .cls-3 {
        fill: #010101;
      }

      .cls-4 {
        fill: #49b6ca;
      }
    </style>
  </defs>
  <g id="Capa_1-2" data-name="Capa 1">
    <g>
      <g>
        <path class="cls-4" d="M175.82,29.31v20.07h-28.5v28.74h-21.31c-.42-.58-.79-1.17-1.12-1.76v-26.98h-4.38c2.03-5.52,2.97-11.92-2.47-13.95-1.27-.48-2.62-.66-4.02-.64,0,0-.01,0-.03,0-.38,0-.77,0-1.15.01-2.72-.15-5.64.61-8.48,1.62-1.99.72-3.94,1.56-5.75,2.29v-9.41h26.27V0h22.43v29.31h28.5Z"/>
        <g>
          <path class="cls-2" d="M124.2,51.66c-.25.95-.53,1.91-.86,2.87-2.49,7.48-6.95,15.15-10.63,19.91-.05.07-.1.14-.16.2-6.68,8.53-13.89,13.06-21.44,20.05-6.67,6.18-11.66,13.72-13.59,23.01-.65-.17-.64-.58-.62-1.17.15-4.26,1.64-9.45,3.57-13.19.6-1.17,2.31-3.13,2.62-3.86.18-.45-.08-.69-.51-.54-22.65,14.73-38.06,39.85-33.17,68.9.6,3.55,1.95,8.55,3.54,11.72.16.3.42,1.22.88.91-6.27-16.1.65-46.58,21.1-45.1,15.05,1.08,20.3,24.43,20.02,37.37l.69.19c1.9-3.05,4.18-5.8,6.07-8.87,1.04-1.69,2.05-3.42,3.02-5.21,4.6-8.45,8.34-17.9,10.42-27.15.46-.59.64.04.7.54.21,1.66-.21,4.8-.39,6.59-1.19,11.62-5.1,25.4-10.73,36.56-1.43,2.85-2.98,5.53-4.62,7.95-1.55,2.28-7,10.23-10.07,7.46-2.01-1.81.18-8.74.38-11.45.64-9.06-3.72-35.37-14.19-37.26-15.29-2.76-17.74,24.27-17.18,35.08.26,4.99,1.7,9.73,2.1,14.69-1.79,3.94-5.9.39-8.01-1.45-3.51-3.06-6.8-6.82-9.69-11.03-7.51-10.94-12.36-24.91-11.55-37.55.32-5.07,1.38-9.61,2.99-13.76,6.53-16.94,22.12-27.48,33.77-41.26,6.79-8.03,11.92-17.6,18.15-26.1,1.38-1.88,2.73-4.13,4.66-5.38-1.73,3.26-3.86,6.28-5.62,9.52-3.05,5.57-5.58,11.47-8.59,17.05-9.15,16.96-26.23,30.16-33.79,47.27-3.92,8.88-5.28,18.82-1.63,30.88l1.22,3.31c-1.4-8.62-1.71-17.36.41-25.8.24-.97.51-1.93.82-2.89,3.54-10.98,12.13-21.5,20.55-28.72,11.4-9.75,25.46-15.52,36.04-26.33-3.38,1.82-6.36,4.38-9.64,6.38-1.98,1.21-5.09,3.08-7.18,3.82-.32.12-.99.68-.94-.07,2.42-1.4,4.97-2.98,7.28-4.64,5.11-3.65,9.99-7.51,14.35-11.9,4.31-4.33,8.13-9.18,11.18-14.87.89-1.66,2.09-4.07,3.05-6.67,2.03-5.52,2.97-11.92-2.47-13.95-1.27-.48-2.62-.66-4.02-.64,0,0-.01,0-.03,0-.16,0-.33,0-.5.01-2.35.12-4.81.78-7.2,1.62-2.04.72-4.03,1.56-5.88,2.29-.81.33-1.59.63-2.34.89-4.36,1.54-8.61,2.07-12.77,1.98-.61,0-1.21-.04-1.81-.07-13.08-.83-25.47-7.33-38.5-7.59-7.33-.16-14.85,1.66-22.82,7.58-8.49,6.31-12.13,14.73-12.88,23.95-.18,2.2-.2,4.44-.08,6.71.73,13.95,6.65,28.91,11.5,40.69,3.26-15.72,14.38-26.24,26.4-35.43,5.57-4.26,11.33-8.22,16.59-12.28,8.96-6.92,17.35-14.92,27.21-20.39l-13.59,11.59c-17.4,19.28-50.47,40.22-53.14,69.43-.16,1.73-.21,3.5-.15,5.29.15,4.27,1.47,8.44,1.56,12.71-1.88-4.39-3.22-9.05-4.99-13.5-.6-1.51-1.22-3.01-1.86-4.49-1.13-2.68-2.31-5.32-3.49-7.96-4.95-11.12-9.97-22.09-12.38-34.33-.77-3.95-1.21-7.72-1.31-11.31-.08-2.76.03-5.42.32-7.96C2.95,43.66,20.09,30.16,43.45,30.38c3.36.02,6.86.33,10.46.95,10.5,1.78,21.64,7.88,32.15,7.24,2.51-.15,4.96-1.05,7.42-1.38.72-.09,1.36.39,2.26.22.45-.09.89-.2,1.33-.35.6-.19,1.19-.43,1.79-.69,1.85-.79,3.75-1.83,5.88-2.61,1.44-.54,2.98-.95,4.66-1.09,15.54-1.3,17.63,8.24,14.79,19Z"/>
          <path class="cls-1" d="M100.01,42.99l-1.15,1.03-6.01,5.4c-11.96,11.27-19.86,26.3-30.65,38.66-10.51,12.04-25.65,23.67-30.3,39.96-.07.23-.13.46-.19.69-3.36,12.72-1.12,25.38,2.96,37.54-7.91-10.85-11.88-24.84-9.53-38.23.5-2.87,1.29-5.72,2.4-8.5,6.51-16.34,21.97-28.53,33.79-40.48,12.09-12.22,22.68-26.76,37.52-35.42.38-.22.77-.44,1.15-.66Z"/>
          <path class="cls-1" d="M127.76,95.16c-.34,1.86,2.27,3.64.79,6.32-.35.64-1.35,1.19-1.49,1.77-.18.75.58,1.41.66,2.16.21,1.99-2.11,3.18-2.38,5.22-.53,3.95,2.54,7.2-.12,11.62-4.62,7.68-15.79,2.79-22.42,2.45-6.93-.35-13.09,1.99-18.11,6.99-1.42,1.42-1.56,3.68-4.02,3.16-.97-.2-4.76-1.66-4.47-2.89.23-.93,4.08-4.99,5.01-5.78,5.79-4.93,13.25-6.42,20.56-5.91,5.29.37,12.93,3.53,17.83,1.56,6.46-2.6.42-9.78,3.08-14.04.38-.61,1.79-1.66,1.87-2.1.08-.51-1.3-1.52-1.02-3.24.16-.98,1.88-2.34,1.96-2.95.33-2.45-3.71-4.85.66-8.29,2.62-2.07,6.4-1.62,2.95-6.06-1.04-1.34-2.51-2.17-3.66-3.5-.35-.41-.68-.83-.98-1.24-.42-.58-.79-1.17-1.12-1.76-.76-1.38-1.28-2.78-1.6-4.2-1.18-5.11.12-10.48,1.6-15.89.53-1.95,1.09-3.9,1.57-5.84.15-.61-.36-1.08.71-.9.24,3.1.57,6.27.36,9.4-.27,4.29-1.86,8.95-.8,13.22.28,1.14.75,2.25,1.49,3.32.51.75,1.41,1.66,2.41,2.63,2.17,2.11,4.83,4.52,5.17,6.28,1.08,5.51-5.98,5.67-6.49,8.47Z"/>
        </g>
      </g>
      <g>
        <g>
          <polygon class="cls-2" points="222.59 92.43 233.22 92.43 233.29 .02 222.86 .02 222.59 92.43"/>
          <polygon class="cls-2" points="277.06 92.43 286.98 92.43 286.11 19.43 287.69 19.43 321.24 74.61 327.68 74.71 360.71 19.43 362.24 19.43 362.24 92.43 371.72 92.43 371.72 .09 362.59 .09 325.43 61.79 323.73 61.86 286.91 .09 277.06 .09 277.06 92.43"/>
          <polygon class="cls-2" points="403.66 92.43 414.19 92.43 449.47 13.73 451.11 13.73 487.11 92.43 497.47 92.43 455.2 .09 446.34 .09 403.66 92.43"/>
          <path class="cls-2" d="M571.1,55.41s26.18-2.86,25.67-28.22c.05-10.54-5.99-17.18-12.35-21.25-6.13-3.92-13.32-5.85-20.6-5.85h-39.86v92.35h9.51v-36.1h26.9l27.81,36.1h11.76l-28.84-37.03ZM533.67,48.7V7.42h29.61c6.32,0,12.48,2.32,16.99,6.73,3.21,3.14,5.89,7.55,6.03,13.59.28,10.81-5.13,16.09-10.01,18.63-3.05,1.59-6.47,2.33-9.91,2.33h-32.72Z"/>
        </g>
        <g>
          <g>
            <path class="cls-3" d="M222.61,143.92v-25.64h2.26l11.83,20h-1.18l11.72-20h2.26v25.64h-2.63v-21.57h.63l-10.8,18.31h-1.29l-10.87-18.31h.7v21.57h-2.62Z"/>
            <path class="cls-3" d="M261.2,143.92v-25.64h16.79v2.34h-14.2v20.95h14.72v2.34h-17.31ZM263.5,132.05v-2.31h12.94v2.31h-12.94Z"/>
            <path class="cls-3" d="M288.16,143.92v-25.64h9.97c2.61,0,4.9.54,6.87,1.63,1.97,1.09,3.5,2.59,4.6,4.52,1.1,1.93,1.64,4.15,1.64,6.67s-.55,4.74-1.64,6.67c-1.1,1.93-2.63,3.44-4.6,4.52-1.97,1.09-4.26,1.63-6.87,1.63h-9.97ZM290.75,141.57h7.24c2.17,0,4.05-.45,5.65-1.34,1.6-.89,2.84-2.12,3.72-3.7.89-1.58,1.33-3.39,1.33-5.44s-.44-3.9-1.33-5.46c-.89-1.56-2.13-2.79-3.72-3.68s-3.48-1.34-5.65-1.34h-7.24v20.95Z"/>
            <path class="cls-3" d="M322.99,144.87v-25.64h2.59v25.64h-2.59Z"/>
            <path class="cls-3" d="M348.96,144.14c-1.84,0-3.54-.32-5.11-.97-1.56-.65-2.91-1.56-4.06-2.73-1.14-1.17-2.03-2.55-2.68-4.14-.64-1.59-.96-3.32-.96-5.2s.32-3.61.96-5.2c.64-1.59,1.54-2.97,2.69-4.14,1.15-1.17,2.51-2.08,4.07-2.73,1.56-.65,3.26-.97,5.11-.97s3.44.31,5,.93c1.56.62,2.88,1.56,3.95,2.8l-1.64,1.72c-1-1.07-2.11-1.85-3.32-2.33-1.21-.48-2.52-.71-3.92-.71-1.47,0-2.83.26-4.09.79-1.26.53-2.36,1.27-3.29,2.23-.93.97-1.66,2.09-2.19,3.37-.52,1.28-.79,2.69-.79,4.23s.26,2.95.79,4.23c.52,1.28,1.25,2.41,2.19,3.37.93.96,2.03,1.71,3.29,2.23,1.26.53,2.62.79,4.09.79s2.7-.24,3.92-.73c1.21-.49,2.32-1.27,3.32-2.34l1.64,1.72c-1.07,1.25-2.39,2.19-3.95,2.82-1.56.64-3.24.95-5.04.95Z"/>
            <path class="cls-3" d="M365.44,143.92l11.19-25.64h2.55l11.19,25.64h-2.73l-10.28-24.06h1.05l-10.28,24.06h-2.69ZM369.84,137.07l.77-2.2h14.23l.77,2.2h-15.77Z"/>
            <path class="cls-3" d="M401.07,143.92v-25.86h2.59v23.49h13.71v2.36h-16.3Z"/>
          </g>
          <g>
            <path class="cls-3" d="M458.45,144.14c-1.94,0-3.72-.32-5.36-.97-1.63-.65-3.05-1.56-4.25-2.73-1.2-1.17-2.13-2.55-2.8-4.14-.67-1.59-1-3.32-1-5.2s.33-3.61,1-5.2c.67-1.59,1.6-2.97,2.81-4.14s2.63-2.08,4.27-2.73c1.63-.65,3.42-.97,5.36-.97s3.71.31,5.32.92c1.61.61,2.98,1.54,4.12,2.78l-1.67,1.72c-1.07-1.07-2.24-1.84-3.52-2.31-1.28-.46-2.66-.7-4.14-.7-1.57,0-3.02.26-4.34.79-1.32.53-2.47,1.27-3.45,2.23-.98.96-1.74,2.09-2.29,3.37s-.82,2.69-.82,4.23.27,2.92.82,4.21c.54,1.3,1.31,2.42,2.29,3.39.98.96,2.13,1.71,3.45,2.23,1.32.53,2.75.79,4.3.79,1.45,0,2.83-.22,4.12-.66,1.29-.44,2.49-1.18,3.58-2.23l1.53,2.05c-1.21,1.07-2.63,1.89-4.25,2.44-1.62.55-3.32.82-5.08.82ZM467.79,140.88l-2.58-.33v-9.45h2.58v9.78Z"/>
            <path class="cls-3" d="M480.39,143.92v-25.86h9.57c3.24,0,5.79.78,7.66,2.35,1.86,1.56,2.8,3.74,2.8,6.52,0,1.82-.42,3.39-1.26,4.71-.84,1.32-2.04,2.33-3.6,3.03-1.56.7-3.42,1.05-5.59,1.05h-8.08l1.21-1.26v9.46h-2.7ZM483.1,134.68l-1.21-1.29h8c2.56,0,4.5-.57,5.83-1.7,1.33-1.13,1.99-2.72,1.99-4.77s-.66-3.67-1.99-4.8c-1.33-1.13-3.27-1.7-5.83-1.7h-8l1.21-1.29v15.55ZM497.86,143.92l-6.58-9.38h2.92l6.61,9.38h-2.96Z"/>
            <path class="cls-3" d="M522.79,144.14c-1.89,0-3.64-.32-5.25-.97-1.61-.65-3.01-1.56-4.2-2.75-1.18-1.18-2.1-2.56-2.76-4.14-.66-1.58-.99-3.3-.99-5.18s.33-3.61.99-5.18c.66-1.58,1.58-2.95,2.76-4.14,1.18-1.18,2.58-2.1,4.18-2.75,1.6-.65,3.36-.97,5.27-.97s3.63.32,5.24.97c1.6.65,2.99,1.56,4.18,2.73s2.1,2.55,2.76,4.14c.66,1.59.99,3.32.99,5.2s-.33,3.61-.99,5.2c-.66,1.59-1.58,2.97-2.76,4.14s-2.58,2.08-4.18,2.73c-1.6.65-3.35.97-5.24.97ZM522.79,141.72c1.51,0,2.9-.26,4.18-.79,1.28-.52,2.39-1.27,3.34-2.23.94-.96,1.68-2.09,2.21-3.37.53-1.28.79-2.69.79-4.23s-.26-2.95-.79-4.23c-.53-1.28-1.26-2.41-2.21-3.37-.94-.96-2.06-1.71-3.34-2.23-1.28-.53-2.67-.79-4.18-.79s-2.9.26-4.2.79c-1.29.53-2.41,1.27-3.35,2.23-.94.96-1.69,2.09-2.22,3.37s-.81,2.69-.81,4.23.27,2.92.81,4.21c.54,1.3,1.28,2.42,2.22,3.39.94.96,2.06,1.71,3.35,2.23,1.29.53,2.69.79,4.2.79Z"/>
            <path class="cls-3" d="M557.46,144.14c-3.73,0-6.67-.94-8.82-2.82-2.15-1.88-3.22-4.66-3.22-8.35v-14.69h3.09v14.58c0,3.03.78,5.26,2.34,6.7,1.56,1.44,3.76,2.16,6.6,2.16s5.08-.72,6.64-2.16c1.56-1.44,2.34-3.67,2.34-6.7v-14.58h3.01v14.69c0,3.69-1.07,6.47-3.2,8.35-2.13,1.88-5.06,2.82-8.8,2.82Z"/>
            <path class="cls-3" d="M580.2,143.92v-25.64h9.61c2.18,0,4.05.35,5.61,1.04,1.56.7,2.77,1.7,3.61,3,.84,1.31,1.27,2.89,1.27,4.74s-.42,3.36-1.27,4.67c-.84,1.31-2.05,2.31-3.61,3.02-1.56.71-3.44,1.06-5.61,1.06h-8.11l1.21-1.28v9.38h-2.71ZM582.91,134.76l-1.21-1.32h8.03c2.57,0,4.52-.56,5.85-1.67,1.33-1.11,2-2.68,2-4.71s-.67-3.64-2-4.76c-1.33-1.12-3.28-1.68-5.85-1.68h-8.03l1.21-1.28v15.42Z"/>
          </g>
        </g>
        <g>
          <path class="cls-3" d="M223.02,193.95v-10.76h.73v10.76h-.73ZM223.66,188.83v-.69h6.82v.69h-6.82ZM230.4,193.95v-10.76h.73v10.76h-.73Z"/>
          <path class="cls-3" d="M238.56,193.95v-10.76h6.65v.71h-5.93v9.35h6.14v.71h-6.87ZM239.2,188.83v-.69h5.39v.69h-5.39Z"/>
          <path class="cls-3" d="M250.37,193.95l4.58-10.76h.73l4.58,10.76h-.78l-4.32-10.27h.31l-4.31,10.27h-.78ZM252.05,190.92l.24-.66h5.96l.24.66h-6.44Z"/>
          <path class="cls-3" d="M266.02,193.95v-10.76h.73v10.06h5.73v.71h-6.45Z"/>
          <path class="cls-3" d="M280.2,193.95v-10.06h-3.58v-.71h7.89v.71h-3.58v10.06h-.72Z"/>
          <path class="cls-3" d="M290.27,193.95v-10.76h.72v10.76h-.72ZM290.91,188.83v-.69h6.82v.69h-6.82ZM297.64,193.95v-10.76h.72v10.76h-.72Z"/>
          <path class="cls-3" d="M304.89,196.15l.55-2.6.07.45c-.18,0-.33-.06-.45-.18s-.18-.28-.18-.46.06-.34.18-.46.26-.18.42-.18c.18,0,.33.06.43.19.11.13.16.28.16.45,0,.07,0,.14-.01.21,0,.07-.02.14-.04.22-.02.07-.04.16-.07.28l-.55,2.09h-.51Z"/>
          <path class="cls-3" d="M312.61,193.95v-10.76h4.15c1.07,0,1.91.24,2.52.71s.91,1.15.91,2.04c0,.58-.13,1.08-.38,1.48-.26.4-.61.7-1.06.9-.45.2-.96.3-1.51.3l.26-.31c.68,0,1.26.11,1.75.32.48.22.85.53,1.1.94s.38.92.38,1.54c0,.9-.3,1.6-.91,2.1-.61.5-1.53.75-2.76.75h-4.43ZM313.34,193.27h3.71c.96,0,1.69-.18,2.19-.53s.75-.92.75-1.7-.25-1.33-.75-1.68c-.5-.35-1.23-.53-2.19-.53h-3.79v-.68h3.48c.86,0,1.53-.18,2-.54.47-.36.71-.9.71-1.62s-.24-1.24-.71-1.6c-.47-.36-1.14-.54-2-.54h-3.4v9.41Z"/>
          <path class="cls-3" d="M327.27,193.95v-10.76h6.65v.71h-5.93v9.35h6.14v.71h-6.87ZM327.91,188.83v-.69h5.39v.69h-5.39Z"/>
          <path class="cls-3" d="M339.08,193.95l4.58-10.76h.73l4.58,10.76h-.78l-4.32-10.27h.31l-4.31,10.27h-.78ZM340.75,190.92l.24-.66h5.96l.24.66h-6.44Z"/>
          <path class="cls-3" d="M358.62,194.03c-1.23,0-2.2-.39-2.91-1.17s-1.07-1.94-1.07-3.48v-6.2h.73v6.17c0,1.34.28,2.34.85,2.98.57.65,1.37.97,2.42.97s1.83-.32,2.4-.97c.57-.65.85-1.64.85-2.98v-6.17h.73v6.2c0,1.54-.36,2.7-1.07,3.48s-1.69,1.17-2.93,1.17Z"/>
          <path class="cls-3" d="M371.87,193.95v-10.06h-3.58v-.71h7.89v.71h-3.58v10.06h-.72Z"/>
          <path class="cls-3" d="M384.28,193.95v-3.91l.17.51-4.18-7.37h.8l3.79,6.69h-.4l3.8-6.69h.75l-4.18,7.37.17-.51v3.91h-.73Z"/>
          <path class="cls-3" d="M396.93,193.95l4.58-10.76h.73l4.58,10.76h-.78l-4.32-10.27h.31l-4.31,10.27h-.78ZM398.6,190.92l.24-.66h5.96l.24.66h-6.44Z"/>
          <path class="cls-3" d="M412.57,193.95v-10.76h.61l7.09,9.8h-.33v-9.8h.72v10.76h-.6l-7.11-9.8h.33v9.8h-.72Z"/>
          <path class="cls-3" d="M428.11,193.95v-10.76h3.94c1.05,0,1.98.23,2.77.69.8.46,1.41,1.1,1.85,1.91s.66,1.74.66,2.78-.22,1.97-.66,2.78c-.44.81-1.06,1.45-1.85,1.91-.8.46-1.72.69-2.77.69h-3.94ZM428.83,193.24h3.16c.94,0,1.75-.2,2.45-.6.69-.4,1.23-.95,1.61-1.65s.57-1.51.57-2.42-.19-1.72-.57-2.42-.91-1.25-1.61-1.65c-.69-.4-1.51-.6-2.45-.6h-3.16v9.35Z"/>
          <path class="cls-3" d="M447.62,193.95v-10.76h3.94c1.05,0,1.98.23,2.77.69.8.46,1.41,1.1,1.85,1.91s.66,1.74.66,2.78-.22,1.97-.66,2.78c-.44.81-1.06,1.45-1.85,1.91-.8.46-1.72.69-2.77.69h-3.94ZM448.35,193.24h3.16c.94,0,1.75-.2,2.45-.6.69-.4,1.23-.95,1.61-1.65s.57-1.51.57-2.42-.19-1.72-.57-2.42-.91-1.25-1.61-1.65c-.69-.4-1.51-.6-2.45-.6h-3.16v9.35Z"/>
          <path class="cls-3" d="M463.33,193.95v-10.76h6.65v.71h-5.93v9.35h6.14v.71h-6.87ZM463.97,188.83v-.69h5.39v.69h-5.39Z"/>
          <path class="cls-3" d="M476.8,193.95v-10.76h.61l7.09,9.8h-.33v-9.8h.72v10.76h-.6l-7.11-9.8h.33v9.8h-.72Z"/>
          <path class="cls-3" d="M494.24,193.95v-10.06h-3.58v-.71h7.89v.71h-3.58v10.06h-.72Z"/>
          <path class="cls-3" d="M502.65,193.95l4.58-10.76h.73l4.58,10.76h-.78l-4.32-10.27h.31l-4.31,10.27h-.78ZM504.32,190.92l.24-.66h5.96l.24.66h-6.44Z"/>
          <path class="cls-3" d="M518.29,193.95v-10.76h.72v10.06h5.73v.71h-6.45Z"/>
          <path class="cls-3" d="M538.59,194.03c-.74,0-1.42-.14-2.05-.41-.63-.27-1.18-.65-1.64-1.15-.46-.49-.83-1.07-1.08-1.73-.26-.66-.38-1.39-.38-2.18s.13-1.51.38-2.18c.25-.66.62-1.24,1.09-1.73s1.02-.87,1.64-1.15c.62-.27,1.31-.41,2.05-.41.7,0,1.36.12,1.97.37s1.13.62,1.57,1.12l-.46.51c-.43-.45-.9-.78-1.41-.98s-1.06-.3-1.64-.3c-.63,0-1.22.12-1.77.35-.54.24-1.02.57-1.42,1-.4.43-.71.93-.94,1.51s-.33,1.2-.33,1.88.11,1.3.33,1.88.54,1.08.94,1.51c.4.43.88.76,1.42,1,.54.24,1.13.35,1.77.35.58,0,1.12-.1,1.64-.3.52-.2.99-.53,1.41-.99l.46.51c-.44.5-.96.88-1.57,1.13s-1.27.38-1.97.38Z"/>
          <path class="cls-3" d="M548.38,193.95v-10.76h.72v10.06h5.73v.71h-6.45Z"/>
          <path class="cls-3" d="M560.66,193.95v-10.76h.72v10.76h-.72Z"/>
          <path class="cls-3" d="M568.82,193.95v-10.76h.61l7.09,9.8h-.33v-9.8h.72v10.76h-.6l-7.11-9.8h.33v9.8h-.72Z"/>
          <path class="cls-3" d="M584.36,193.95v-10.76h.72v10.76h-.72Z"/>
          <path class="cls-3" d="M596.72,194.03c-.74,0-1.42-.14-2.05-.41-.63-.27-1.18-.65-1.64-1.15-.46-.49-.83-1.07-1.08-1.73-.26-.66-.38-1.39-.38-2.18s.13-1.51.38-2.18c.25-.66.62-1.24,1.09-1.73s1.02-.87,1.64-1.15c.62-.27,1.31-.41,2.05-.41.7,0,1.36.12,1.97.37s1.13.62,1.57,1.12l-.46.51c-.43-.45-.9-.78-1.41-.98s-1.06-.3-1.64-.3c-.63,0-1.22.12-1.77.35-.54.24-1.02.57-1.42,1-.4.43-.71.93-.94,1.51s-.33,1.2-.33,1.88.11,1.3.33,1.88.54,1.08.94,1.51c.4.43.88.76,1.42,1,.54.24,1.13.35,1.77.35.58,0,1.12-.1,1.64-.3.52-.2.99-.53,1.41-.99l.46.51c-.44.5-.96.88-1.57,1.13s-1.27.38-1.97.38Z"/>
        </g>
        <g>
          <g>
            <rect class="cls-1" x="222.57" y="158.04" width="158.13" height="2.59"/>
            <rect class="cls-1" x="432.87" y="158.04" width="167.4" height="2.59"/>
          </g>
          <g>
            <path class="cls-4" d="M430.4,158.93v.66c-.29.51-.54.78-1.14.85h-10.29c-.2.05-1.98,2.88-2.55,3.13-.48.2-1.01.03-1.35-.35l-2.19-3.72c-.55,2.82-1.19,5.65-1.83,8.46-.16-.01-.28-.09-.41-.19-.22-.18-1.41-1.4-1.51-1.6.92-3.44,1.43-7.02,2.42-10.43.41-.64,1.33-.67,1.77-.05l2.79,4.74c.69-.66,1.29-2.2,2.29-2.34h10.85c.6.06.85.33,1.14.84Z"/>
            <path class="cls-4" d="M402.47,161.66c-.47,1.04-1,2.7-1.57,3.6-.46.74-1.36.78-1.89.1l-2.36-4.74-12.26-.04c-1.18-.5-.85-2.16.41-2.22l12.76.03c.25.07.48.17.65.38.59.74,1.1,2.4,1.61,3.27l1-1.97c.15.13.06.37.14.56.1.23,1.14,1.28,1.5,1.04Z"/>
            <path class="cls-4" d="M409.04,165.89c-1-.57-1.6-1.88-2.65-2.35-.45-2.47-.9-4.95-1.28-7.43-.21-.05-.15.03-.2.12-.11.18-.23.48-.33.69-.74,1.55-1.41,3.17-2.11,4.73-.37.24-1.41-.81-1.5-1.04-.08-.19.01-.44-.14-.56,1.2-2.92,2.5-5.81,3.83-8.67.92-.75,1.69-.32,1.97.77,1.1,4.36,1.43,9.32,2.42,13.73Z"/>
            <path class="cls-4" d="M409.04,165.89s.08.27.09.28c.1.2,1.28,1.42,1.51,1.6.13.1.25.18.41.19-.27,1.22-.55,3.33-.99,4.39-.27.65-1.03.91-1.61.5-.39-.27-.45-.6-.55-1.03-.63-2.59-1.02-5.61-1.5-8.28,1.04.47,1.65,1.78,2.65,2.35Z"/>
          </g>
        </g>
      </g>
    </g>
  </g>
</svg>